<svg width="184" height="184" viewBox="0 0 184 184" fill="none" xmlns="http://www.w3.org/2000/svg">
<circle cx="105.8" cy="78.2" r="55.2" fill="#EE8D1B" fill-opacity="0.3"/>
<path fill-rule="evenodd" clip-rule="evenodd" d="M91.9999 168.667C134.343 168.667 168.667 134.343 168.667 91.9999C168.667 49.6569 134.343 15.3333 91.9999 15.3333C49.6569 15.3333 15.3333 49.6569 15.3333 91.9999C15.3333 134.343 49.6569 168.667 91.9999 168.667ZM111.067 25.1773C110.205 24.9063 109.292 24.8421 108.401 24.9899C107.51 25.1377 106.666 25.4933 105.938 26.0278C105.211 26.5624 104.619 27.261 104.211 28.0669C103.803 28.8728 103.591 29.7634 103.592 30.6666V73.2933C98.7894 70.0778 93.0499 68.5597 87.2856 68.98C81.5214 69.4004 76.0629 71.7351 71.7776 75.6133C67.4924 79.4915 64.6261 84.6906 63.6344 90.3844C62.6426 96.0783 63.5823 101.94 66.304 107.039C69.0256 112.138 73.3733 116.18 78.656 118.525C83.9387 120.869 89.8534 121.381 95.4603 119.979C101.067 118.576 106.045 115.34 109.602 110.785C113.158 106.23 115.091 100.616 115.092 94.8366V39.0463C122.841 42.6572 129.754 47.8395 135.394 54.2643C141.033 60.6891 145.276 68.2161 147.852 76.3676C148.058 77.111 148.412 77.8053 148.892 78.409C149.373 79.0128 149.97 79.5137 150.648 79.8819C151.326 80.2502 152.071 80.4782 152.839 80.5524C153.607 80.6266 154.382 80.5455 155.118 80.3139C155.854 80.0823 156.536 79.7049 157.123 79.2043C157.71 78.7037 158.19 78.09 158.535 77.3999C158.88 76.7097 159.083 75.9572 159.131 75.1872C159.179 74.4171 159.071 73.6453 158.815 72.9176C155.278 61.708 149.092 51.5158 140.78 43.2042C132.469 34.8926 122.277 28.7141 111.067 25.1773Z" fill="#EE8D1B"/>
</svg>
